<svg xmlns="http://www.w3.org/2000/svg" xmlns:xlink="http://www.w3.org/1999/xlink" width="500" zoomAndPan="magnify" viewBox="0 0 375 112.499997" height="150" preserveAspectRatio="xMidYMid meet" version="1.0"><defs><clipPath id="ea46b123d4"><path d="M 43 17.605469 L 101 17.605469 L 101 77 L 43 77 Z M 43 17.605469 " clip-rule="nonzero"/></clipPath><clipPath id="36d0e20ef2"><path d="M 76 18 L 133 18 L 133 94.515625 L 76 94.515625 Z M 76 18 " clip-rule="nonzero"/></clipPath><clipPath id="b101560a15"><path d="M 11.417969 18 L 69 18 L 69 94.515625 L 11.417969 94.515625 Z M 11.417969 18 " clip-rule="nonzero"/></clipPath><clipPath id="9ab6eff895"><path d="M 348 58 L 363.851562 58 L 363.851562 79 L 348 79 Z M 348 58 " clip-rule="nonzero"/></clipPath></defs><g clip-path="url(#ea46b123d4)"><path fill="#5495d6" d="M 43.589844 39.5 C 43.589844 42.054688 43.589844 44.617188 43.589844 47.171875 C 43.589844 49.789062 43.640625 52.394531 43.5625 55.011719 C 43.507812 56.652344 44.210938 57.207031 45.796875 57.195312 C 50.398438 57.128906 55 57.167969 59.613281 57.167969 C 61.875 57.167969 62.085938 57.378906 62.085938 59.574219 C 62.085938 64.464844 62.085938 69.34375 62.085938 74.238281 C 62.085938 76.050781 62.601562 76.550781 64.441406 76.566406 C 69.613281 76.578125 74.78125 76.550781 79.964844 76.578125 C 81.527344 76.578125 82.226562 76.011719 82.199219 74.355469 C 82.132812 69.582031 82.171875 64.808594 82.171875 60.035156 C 82.171875 57.457031 82.449219 57.167969 84.964844 57.167969 C 89.460938 57.167969 93.941406 57.167969 98.4375 57.167969 C 100.515625 57.167969 100.882812 56.796875 100.898438 54.667969 C 100.898438 49.617188 100.898438 44.550781 100.898438 39.5 C 100.898438 37.597656 100.382812 37.109375 98.449219 37.109375 C 93.785156 37.109375 89.128906 37.109375 84.460938 37.109375 C 82.503906 37.109375 82.1875 36.777344 82.171875 34.820312 C 82.171875 29.996094 82.171875 25.167969 82.171875 20.328125 C 82.171875 18.121094 81.816406 17.75 79.621094 17.738281 C 74.675781 17.722656 69.730469 17.722656 64.785156 17.738281 C 62.5625 17.738281 62.085938 18.226562 62.085938 20.433594 C 62.085938 25.261719 62.046875 30.085938 62.113281 34.925781 C 62.140625 36.539062 61.546875 37.160156 59.917969 37.132812 C 55.265625 37.070312 50.597656 37.109375 45.929688 37.121094 C 43.917969 37.121094 43.574219 37.492188 43.574219 39.527344 Z M 43.589844 39.5 " fill-opacity="1" fill-rule="nonzero"/></g><g clip-path="url(#36d0e20ef2)"><path fill="#ffffff" d="M 132.804688 33.167969 C 132.738281 31.804688 132.660156 30.457031 132.445312 29.160156 C 132.117188 27.136719 131.480469 25.207031 130.121094 23.488281 C 128.269531 21.160156 125.542969 19.574219 122.621094 18.992188 C 121.089844 18.6875 119.5 18.675781 117.953125 18.953125 C 113.511719 19.757812 109.453125 21.714844 105.5 23.832031 C 100.710938 26.398438 96.347656 29.542969 92.234375 33.628906 L 101.015625 33.628906 C 101.160156 33.5 101.691406 33.035156 102.417969 32.480469 C 107.007812 29.148438 111.976562 26.542969 117.398438 24.769531 C 122.277344 23.183594 126.878906 26.238281 127.199219 31.355469 C 127.421875 34.875 127.304688 38.390625 126.839844 41.894531 C 125.953125 48.546875 123.8125 54.679688 119.410156 59.863281 C 118.074219 61.4375 116.355469 63.078125 114.253906 63.449219 C 114.132812 63.476562 114 63.488281 113.882812 63.488281 C 113.882812 63.488281 113.960938 63.6875 114.09375 64.003906 C 115.785156 68.207031 116.472656 72.980469 115.046875 77.386719 C 113.867188 81.046875 111.410156 84.246094 108.117188 86.246094 C 106.886719 86.984375 105.566406 87.566406 104.191406 87.964844 C 98.160156 89.695312 92.59375 88.453125 87.804688 85.226562 C 83.933594 82.582031 82.542969 80.1875 82.464844 80.03125 L 76.277344 80.03125 C 77.914062 83.746094 80.347656 86.46875 83.402344 88.597656 C 89.566406 92.882812 96.269531 95.382812 103.898438 93.78125 C 107.667969 92.988281 111.183594 91.070312 114.039062 88.503906 C 117.570312 85.320312 120.097656 81.023438 121.0625 76.355469 C 121.738281 73.085938 121.628906 69.6875 121.035156 66.410156 C 121.023438 66.316406 121.007812 66.265625 121.007812 66.265625 C 121.050781 66.238281 121.089844 66.210938 121.113281 66.183594 C 124.9375 63.382812 127.25 59.019531 129.074219 54.746094 C 131.097656 50 132.382812 44.921875 132.738281 39.765625 C 132.898438 37.558594 132.898438 35.347656 132.789062 33.140625 Z M 132.804688 33.167969 " fill-opacity="1" fill-rule="nonzero"/></g><g clip-path="url(#b101560a15)"><path fill="#ffffff" d="M 11.496094 33.167969 C 11.5625 31.804688 11.640625 30.457031 11.855469 29.160156 C 12.183594 27.136719 12.820312 25.207031 14.179688 23.488281 C 16.03125 21.160156 18.757812 19.574219 21.679688 18.992188 C 23.210938 18.6875 24.800781 18.675781 26.347656 18.953125 C 30.789062 19.757812 34.847656 21.714844 38.800781 23.832031 C 43.589844 26.398438 47.953125 29.542969 52.066406 33.628906 L 43.285156 33.628906 C 43.140625 33.5 42.609375 33.035156 41.882812 32.480469 C 37.292969 29.148438 32.324219 26.542969 26.902344 24.769531 C 22.023438 23.183594 17.421875 26.238281 17.101562 31.355469 C 16.878906 34.875 16.996094 38.390625 17.460938 41.894531 C 18.347656 48.546875 20.488281 54.679688 24.890625 59.863281 C 26.226562 61.4375 27.945312 63.078125 30.046875 63.449219 C 30.167969 63.476562 30.300781 63.488281 30.417969 63.488281 C 30.417969 63.488281 30.339844 63.6875 30.207031 64.003906 C 28.515625 68.207031 27.828125 72.980469 29.253906 77.386719 C 30.433594 81.046875 32.890625 84.246094 36.183594 86.246094 C 37.414062 86.984375 38.734375 87.566406 40.109375 87.964844 C 46.140625 89.695312 51.707031 88.453125 56.496094 85.226562 C 60.367188 82.582031 61.757812 80.1875 61.835938 80.03125 L 68.023438 80.03125 C 66.386719 83.746094 63.953125 86.46875 60.898438 88.597656 C 54.734375 92.882812 48.03125 95.382812 40.402344 93.78125 C 36.632812 92.988281 33.117188 91.070312 30.261719 88.503906 C 26.730469 85.320312 24.203125 81.023438 23.238281 76.355469 C 22.5625 73.085938 22.671875 69.6875 23.265625 66.410156 C 23.277344 66.316406 23.292969 66.265625 23.292969 66.265625 C 23.253906 66.238281 23.210938 66.210938 23.1875 66.183594 C 19.363281 63.382812 17.050781 59.019531 15.226562 54.746094 C 13.1875 50.015625 11.90625 44.9375 11.550781 39.777344 C 11.390625 37.570312 11.390625 35.363281 11.496094 33.15625 Z M 11.496094 33.167969 " fill-opacity="1" fill-rule="nonzero"/></g><path fill="#ffffff" d="M 167.792969 48.730469 L 167.792969 31.714844 C 167.792969 30.984375 167.910156 30.496094 168.164062 30.246094 C 168.398438 29.996094 168.902344 29.863281 169.644531 29.863281 L 170.210938 29.863281 C 170.953125 29.863281 171.453125 29.996094 171.691406 30.246094 C 171.929688 30.496094 172.0625 30.984375 172.0625 31.714844 L 172.0625 48.730469 C 172.0625 49.457031 171.945312 49.949219 171.691406 50.199219 C 171.453125 50.449219 170.953125 50.582031 170.210938 50.582031 L 169.644531 50.582031 C 168.902344 50.582031 168.398438 50.449219 168.164062 50.199219 C 167.925781 49.949219 167.792969 49.457031 167.792969 48.730469 Z M 167.792969 48.730469 " fill-opacity="1" fill-rule="nonzero"/><path fill="#ffffff" d="M 178.621094 48.730469 L 178.621094 34.398438 C 178.621094 32.613281 178.964844 31.355469 179.640625 30.601562 C 180.3125 29.863281 181.453125 29.492188 183.050781 29.492188 C 184.375 29.492188 185.351562 29.769531 186 30.324219 C 186.648438 30.878906 187.152344 31.898438 187.507812 33.378906 L 190.828125 46.722656 C 190.90625 47.171875 191.105469 47.394531 191.394531 47.394531 C 191.582031 47.394531 191.710938 47.34375 191.777344 47.222656 C 191.84375 47.105469 191.871094 46.867188 191.871094 46.507812 L 191.871094 31.726562 C 191.871094 31 191.988281 30.511719 192.242188 30.257812 C 192.480469 30.007812 192.980469 29.875 193.722656 29.875 L 194.171875 29.875 C 194.914062 29.875 195.414062 30.007812 195.652344 30.257812 C 195.890625 30.511719 196.023438 31 196.023438 31.726562 L 196.023438 46.058594 C 196.023438 47.84375 195.691406 49.101562 195.03125 49.855469 C 194.371094 50.59375 193.273438 50.964844 191.753906 50.964844 C 190.375 50.964844 189.34375 50.675781 188.683594 50.09375 C 188.011719 49.511719 187.496094 48.464844 187.109375 46.960938 L 183.859375 33.960938 C 183.777344 33.578125 183.699219 33.339844 183.621094 33.234375 C 183.539062 33.128906 183.410156 33.074219 183.222656 33.074219 C 183.039062 33.074219 182.90625 33.128906 182.851562 33.246094 C 182.800781 33.367188 182.773438 33.628906 182.773438 34.027344 L 182.773438 48.746094 C 182.773438 49.472656 182.65625 49.960938 182.402344 50.210938 C 182.164062 50.464844 181.664062 50.59375 180.921875 50.59375 L 180.472656 50.59375 C 179.730469 50.59375 179.230469 50.464844 178.992188 50.210938 C 178.753906 49.960938 178.621094 49.472656 178.621094 48.746094 Z M 178.621094 48.730469 " fill-opacity="1" fill-rule="nonzero"/><path fill="#ffffff" d="M 201.300781 48.164062 L 201.300781 47.84375 C 201.300781 47.078125 201.429688 46.589844 201.695312 46.378906 C 201.960938 46.164062 202.449219 46.152344 203.148438 46.351562 C 204.84375 46.773438 206.46875 46.984375 207.988281 46.984375 C 209.257812 46.984375 210.160156 46.851562 210.6875 46.601562 C 211.203125 46.351562 211.46875 45.902344 211.46875 45.265625 C 211.46875 44.804688 211.296875 44.394531 210.953125 44.050781 C 210.609375 43.707031 209.933594 43.242188 208.914062 42.648438 L 204.84375 40.253906 C 202.699219 39 201.628906 37.214844 201.628906 34.898438 C 201.628906 33.101562 202.226562 31.753906 203.429688 30.867188 C 204.632812 29.980469 206.496094 29.542969 209.046875 29.542969 C 210.554688 29.542969 211.878906 29.714844 213.027344 30.058594 C 213.792969 30.273438 214.296875 30.523438 214.535156 30.789062 C 214.773438 31.066406 214.90625 31.566406 214.90625 32.28125 L 214.90625 32.597656 C 214.90625 33.367188 214.773438 33.84375 214.523438 34.054688 C 214.269531 34.25 213.769531 34.25 213.027344 34.039062 C 211.984375 33.695312 210.660156 33.523438 209.046875 33.523438 C 207.921875 33.523438 207.128906 33.628906 206.695312 33.84375 C 206.246094 34.054688 206.019531 34.449219 206.019531 35.019531 C 206.019531 35.402344 206.136719 35.71875 206.390625 35.984375 C 206.628906 36.25 207.089844 36.578125 207.777344 36.988281 L 212.007812 39.476562 C 213.410156 40.308594 214.402344 41.140625 214.984375 42.015625 C 215.566406 42.875 215.859375 43.957031 215.859375 45.253906 C 215.859375 47.183594 215.222656 48.625 213.941406 49.550781 C 212.671875 50.488281 210.660156 50.953125 207.921875 50.953125 C 206.074219 50.953125 204.472656 50.753906 203.109375 50.34375 C 202.34375 50.132812 201.855469 49.894531 201.628906 49.628906 C 201.40625 49.367188 201.300781 48.875 201.300781 48.148438 Z M 201.300781 48.164062 " fill-opacity="1" fill-rule="nonzero"/><path fill="#ffffff" d="M 219.425781 32.003906 L 219.425781 31.714844 C 219.425781 30.984375 219.546875 30.496094 219.796875 30.246094 C 220.035156 29.996094 220.539062 29.863281 221.277344 29.863281 L 234.117188 29.863281 C 234.84375 29.863281 235.335938 29.996094 235.585938 30.246094 C 235.835938 30.496094 235.96875 30.984375 235.96875 31.714844 L 235.96875 32.003906 C 235.96875 32.746094 235.835938 33.246094 235.585938 33.484375 C 235.335938 33.722656 234.84375 33.855469 234.117188 33.855469 L 229.847656 33.855469 L 229.847656 48.730469 C 229.847656 49.457031 229.714844 49.949219 229.464844 50.199219 C 229.210938 50.449219 228.722656 50.582031 227.996094 50.582031 L 227.386719 50.582031 C 226.648438 50.582031 226.144531 50.449219 225.90625 50.199219 C 225.667969 49.949219 225.535156 49.457031 225.535156 48.730469 L 225.535156 33.855469 L 221.265625 33.855469 C 220.523438 33.855469 220.023438 33.734375 219.785156 33.484375 C 219.546875 33.246094 219.414062 32.746094 219.414062 32.003906 Z M 219.425781 32.003906 " fill-opacity="1" fill-rule="nonzero"/><path fill="#ffffff" d="M 241.179688 48.730469 L 241.179688 31.714844 C 241.179688 30.984375 241.296875 30.496094 241.550781 30.246094 C 241.789062 29.996094 242.289062 29.863281 243.03125 29.863281 L 243.597656 29.863281 C 244.339844 29.863281 244.84375 29.996094 245.082031 30.246094 C 245.316406 30.496094 245.449219 30.984375 245.449219 31.714844 L 245.449219 48.730469 C 245.449219 49.457031 245.332031 49.949219 245.082031 50.199219 C 244.84375 50.449219 244.339844 50.582031 243.597656 50.582031 L 243.03125 50.582031 C 242.289062 50.582031 241.789062 50.449219 241.550781 50.199219 C 241.3125 49.949219 241.179688 49.457031 241.179688 48.730469 Z M 241.179688 48.730469 " fill-opacity="1" fill-rule="nonzero"/><path fill="#ffffff" d="M 250.671875 32.003906 L 250.671875 31.714844 C 250.671875 30.984375 250.792969 30.496094 251.042969 30.246094 C 251.28125 29.996094 251.785156 29.863281 252.523438 29.863281 L 265.363281 29.863281 C 266.089844 29.863281 266.582031 29.996094 266.832031 30.246094 C 267.082031 30.496094 267.214844 30.984375 267.214844 31.714844 L 267.214844 32.003906 C 267.214844 32.746094 267.082031 33.246094 266.832031 33.484375 C 266.582031 33.722656 266.089844 33.855469 265.363281 33.855469 L 261.09375 33.855469 L 261.09375 48.730469 C 261.09375 49.457031 260.960938 49.949219 260.710938 50.199219 C 260.457031 50.449219 259.96875 50.582031 259.242188 50.582031 L 258.632812 50.582031 C 257.894531 50.582031 257.390625 50.449219 257.152344 50.199219 C 256.914062 49.949219 256.78125 49.457031 256.78125 48.730469 L 256.78125 33.855469 L 252.511719 33.855469 C 251.769531 33.855469 251.269531 33.734375 251.03125 33.484375 C 250.792969 33.246094 250.660156 32.746094 250.660156 32.003906 Z M 250.671875 32.003906 " fill-opacity="1" fill-rule="nonzero"/><path fill="#ffffff" d="M 271.855469 43.324219 L 271.855469 31.726562 C 271.855469 31 271.976562 30.511719 272.226562 30.257812 C 272.464844 30.007812 272.96875 29.875 273.707031 29.875 L 274.277344 29.875 C 275.015625 29.875 275.519531 30.007812 275.757812 30.257812 C 275.996094 30.511719 276.128906 31 276.128906 31.726562 L 276.128906 43.324219 C 276.128906 45.769531 277.503906 46.984375 280.238281 46.984375 C 282.976562 46.984375 284.3125 45.769531 284.3125 43.324219 L 284.3125 31.726562 C 284.3125 31 284.445312 30.511719 284.695312 30.257812 C 284.949219 30.007812 285.4375 29.875 286.164062 29.875 L 286.734375 29.875 C 287.460938 29.875 287.949219 30.007812 288.199219 30.257812 C 288.453125 30.511719 288.582031 31 288.582031 31.726562 L 288.582031 43.324219 C 288.582031 45.847656 287.855469 47.753906 286.414062 49.035156 C 284.972656 50.316406 282.910156 50.964844 280.238281 50.964844 C 277.570312 50.964844 275.441406 50.316406 274.011719 49.035156 C 272.582031 47.753906 271.855469 45.847656 271.855469 43.324219 Z M 271.855469 43.324219 " fill-opacity="1" fill-rule="nonzero"/><path fill="#ffffff" d="M 293.238281 32.003906 L 293.238281 31.714844 C 293.238281 30.984375 293.355469 30.496094 293.609375 30.246094 C 293.847656 29.996094 294.347656 29.863281 295.089844 29.863281 L 307.929688 29.863281 C 308.65625 29.863281 309.144531 29.996094 309.398438 30.246094 C 309.648438 30.496094 309.78125 30.984375 309.78125 31.714844 L 309.78125 32.003906 C 309.78125 32.746094 309.648438 33.246094 309.398438 33.484375 C 309.144531 33.722656 308.65625 33.855469 307.929688 33.855469 L 303.65625 33.855469 L 303.65625 48.730469 C 303.65625 49.457031 303.527344 49.949219 303.273438 50.199219 C 303.023438 50.449219 302.535156 50.582031 301.808594 50.582031 L 301.199219 50.582031 C 300.457031 50.582031 299.957031 50.449219 299.71875 50.199219 C 299.480469 49.949219 299.347656 49.457031 299.347656 48.730469 L 299.347656 33.855469 L 295.078125 33.855469 C 294.335938 33.855469 293.832031 33.734375 293.59375 33.484375 C 293.355469 33.246094 293.226562 32.746094 293.226562 32.003906 Z M 293.238281 32.003906 " fill-opacity="1" fill-rule="nonzero"/><path fill="#ffffff" d="M 312.953125 42.515625 L 312.953125 38.058594 C 312.953125 35.296875 313.601562 33.207031 314.898438 31.777344 C 316.21875 30.3125 318.492188 29.585938 321.746094 29.585938 C 325 29.585938 327.273438 30.3125 328.597656 31.777344 C 329.890625 33.207031 330.539062 35.296875 330.539062 38.058594 L 330.539062 42.515625 C 330.539062 45.28125 329.890625 47.367188 328.597656 48.796875 C 327.273438 50.265625 325 50.992188 321.746094 50.992188 C 318.492188 50.992188 316.21875 50.265625 314.898438 48.796875 C 313.601562 47.367188 312.953125 45.28125 312.953125 42.515625 Z M 326.242188 42.515625 L 326.242188 38.058594 C 326.242188 36.421875 325.9375 35.285156 325.355469 34.621094 C 324.734375 33.921875 323.546875 33.5625 321.761719 33.5625 C 319.976562 33.5625 318.773438 33.921875 318.164062 34.621094 C 317.570312 35.285156 317.277344 36.433594 317.277344 38.058594 L 317.277344 42.515625 C 317.277344 44.15625 317.570312 45.292969 318.164062 45.953125 C 318.785156 46.65625 319.976562 47.011719 321.761719 47.011719 C 323.546875 47.011719 324.761719 46.65625 325.355469 45.953125 C 325.953125 45.292969 326.242188 44.15625 326.242188 42.515625 Z M 326.242188 42.515625 " fill-opacity="1" fill-rule="nonzero"/><path fill="#ffffff" d="M 167.527344 74.992188 L 167.527344 61.925781 C 167.527344 60.59375 167.832031 59.613281 168.441406 59.019531 C 169.046875 58.410156 170.011719 58.105469 171.347656 58.105469 L 173.992188 58.105469 C 177.472656 58.105469 179.957031 58.6875 181.453125 59.863281 C 182.984375 61.027344 183.738281 63.15625 183.738281 66.238281 L 183.738281 70.695312 C 183.738281 73.523438 182.957031 75.574219 181.398438 76.871094 C 179.839844 78.164062 177.367188 78.8125 173.992188 78.8125 L 171.347656 78.8125 C 170.011719 78.8125 169.035156 78.507812 168.441406 77.902344 C 167.832031 77.292969 167.527344 76.328125 167.527344 74.992188 Z M 172.75 74.832031 L 173.992188 74.832031 C 176.070312 74.832031 177.472656 74.542969 178.199219 73.945312 C 178.964844 73.324219 179.347656 72.253906 179.347656 70.695312 L 179.347656 66.238281 C 179.347656 64.691406 178.964844 63.621094 178.199219 63.023438 C 177.457031 62.402344 176.054688 62.097656 173.992188 62.097656 L 172.75 62.097656 C 172.117188 62.097656 171.796875 62.417969 171.796875 63.050781 L 171.796875 73.882812 C 171.796875 74.515625 172.117188 74.832031 172.75 74.832031 Z M 172.75 74.832031 " fill-opacity="1" fill-rule="nonzero"/><path fill="#ffffff" d="M 201.75 63.84375 L 205.320312 77.027344 C 205.503906 77.753906 205.515625 78.230469 205.332031 78.457031 C 205.148438 78.695312 204.683594 78.8125 203.945312 78.8125 L 203.335938 78.8125 C 202.59375 78.8125 202.066406 78.695312 201.761719 78.457031 C 201.457031 78.21875 201.207031 77.742188 201.007812 77.027344 L 200.175781 73.773438 L 191.765625 73.773438 L 190.933594 77.027344 C 190.746094 77.753906 190.496094 78.230469 190.179688 78.457031 C 189.875 78.695312 189.34375 78.8125 188.605469 78.8125 L 187.996094 78.8125 C 187.257812 78.8125 186.792969 78.695312 186.609375 78.457031 C 186.421875 78.21875 186.4375 77.742188 186.621094 77.027344 L 190.191406 63.84375 C 190.535156 62.613281 190.8125 61.691406 191.050781 61.066406 C 191.261719 60.472656 191.59375 59.890625 192.042969 59.308594 C 192.808594 58.292969 194.117188 57.777344 195.957031 57.777344 C 197.792969 57.777344 199.117188 58.292969 199.871094 59.308594 C 200.320312 59.878906 200.652344 60.472656 200.863281 61.066406 C 201.101562 61.691406 201.378906 62.601562 201.722656 63.84375 Z M 194.332031 64.03125 L 192.769531 69.953125 L 199.171875 69.953125 L 197.636719 64.03125 C 197.332031 62.984375 197.121094 62.335938 196.960938 62.058594 C 196.789062 61.769531 196.460938 61.609375 195.96875 61.609375 C 195.480469 61.609375 195.148438 61.753906 194.976562 62.058594 C 194.832031 62.335938 194.609375 63 194.304688 64.03125 Z M 194.332031 64.03125 " fill-opacity="1" fill-rule="nonzero"/><path fill="#ffffff" d="M 218.027344 60.234375 L 218.027344 59.945312 C 218.027344 59.21875 218.144531 58.726562 218.394531 58.476562 C 218.632812 58.226562 219.136719 58.09375 219.878906 58.09375 L 232.714844 58.09375 C 233.445312 58.09375 233.933594 58.226562 234.183594 58.476562 C 234.4375 58.726562 234.566406 59.21875 234.566406 59.945312 L 234.566406 60.234375 C 234.566406 60.976562 234.4375 61.476562 234.183594 61.714844 C 233.933594 61.953125 233.445312 62.085938 232.714844 62.085938 L 228.445312 62.085938 L 228.445312 76.960938 C 228.445312 77.6875 228.3125 78.179688 228.0625 78.429688 C 227.8125 78.679688 227.320312 78.8125 226.59375 78.8125 L 225.984375 78.8125 C 225.246094 78.8125 224.742188 78.679688 224.503906 78.429688 C 224.265625 78.179688 224.136719 77.6875 224.136719 76.960938 L 224.136719 62.085938 L 219.863281 62.085938 C 219.125 62.085938 218.621094 61.96875 218.382812 61.714844 C 218.144531 61.476562 218.011719 60.976562 218.011719 60.234375 Z M 218.027344 60.234375 " fill-opacity="1" fill-rule="nonzero"/><path fill="#ffffff" d="M 239.777344 76.960938 L 239.777344 59.945312 C 239.777344 59.21875 239.898438 58.726562 240.148438 58.476562 C 240.386719 58.226562 240.886719 58.09375 241.628906 58.09375 L 242.199219 58.09375 C 242.9375 58.09375 243.441406 58.226562 243.679688 58.476562 C 243.917969 58.726562 244.046875 59.21875 244.046875 59.945312 L 244.046875 76.960938 C 244.046875 77.6875 243.929688 78.179688 243.679688 78.429688 C 243.441406 78.679688 242.9375 78.8125 242.199219 78.8125 L 241.628906 78.8125 C 240.886719 78.8125 240.386719 78.679688 240.148438 78.429688 C 239.910156 78.179688 239.777344 77.6875 239.777344 76.960938 Z M 239.777344 76.960938 " fill-opacity="1" fill-rule="nonzero"/><path fill="#ffffff" d="M 266.699219 64.730469 C 266.699219 68.167969 265.273438 70.257812 262.402344 71.011719 L 266.582031 77.292969 C 266.976562 77.886719 267.136719 78.296875 267.03125 78.507812 C 266.925781 78.722656 266.5 78.828125 265.761719 78.828125 L 264.542969 78.828125 C 263.816406 78.828125 263.273438 78.722656 262.890625 78.507812 C 262.507812 78.296875 262.113281 77.886719 261.675781 77.265625 L 257.789062 71.34375 L 254.890625 71.34375 L 254.890625 76.976562 C 254.890625 77.703125 254.773438 78.191406 254.519531 78.441406 C 254.285156 78.695312 253.78125 78.828125 253.039062 78.828125 L 252.472656 78.828125 C 251.730469 78.828125 251.230469 78.695312 250.992188 78.441406 C 250.753906 78.191406 250.621094 77.703125 250.621094 76.976562 L 250.621094 61.941406 C 250.621094 60.605469 250.925781 59.625 251.53125 59.03125 C 252.140625 58.421875 253.105469 58.121094 254.441406 58.121094 L 259.664062 58.121094 C 264.359375 58.121094 266.699219 60.328125 266.699219 64.742188 Z M 259.664062 62.085938 L 255.84375 62.085938 C 255.207031 62.085938 254.890625 62.402344 254.890625 63.039062 L 254.890625 67.335938 L 259.664062 67.335938 C 261.515625 67.335938 262.441406 66.464844 262.441406 64.71875 C 262.441406 63.804688 262.230469 63.132812 261.792969 62.707031 C 261.359375 62.285156 260.65625 62.074219 259.679688 62.074219 Z M 259.664062 62.085938 " fill-opacity="1" fill-rule="nonzero"/><path fill="#ffffff" d="M 284.378906 70.21875 L 276.960938 70.21875 L 276.960938 73.882812 C 276.960938 74.515625 277.277344 74.832031 277.914062 74.832031 L 285.648438 74.832031 C 286.375 74.832031 286.863281 74.953125 287.117188 75.203125 C 287.367188 75.441406 287.5 75.945312 287.5 76.683594 L 287.5 76.976562 C 287.5 77.703125 287.367188 78.191406 287.117188 78.441406 C 286.863281 78.695312 286.375 78.828125 285.648438 78.828125 L 276.511719 78.828125 C 275.175781 78.828125 274.195312 78.523438 273.601562 77.914062 C 272.992188 77.304688 272.691406 76.339844 272.691406 75.003906 L 272.691406 61.941406 C 272.691406 60.605469 272.992188 59.625 273.601562 59.03125 C 274.210938 58.421875 275.175781 58.121094 276.511719 58.121094 L 285.648438 58.121094 C 286.375 58.121094 286.863281 58.25 287.117188 58.503906 C 287.367188 58.753906 287.5 59.242188 287.5 59.96875 L 287.5 60.261719 C 287.5 61.003906 287.367188 61.503906 287.117188 61.742188 C 286.863281 61.980469 286.375 62.113281 285.648438 62.113281 L 277.914062 62.113281 C 277.277344 62.113281 276.960938 62.429688 276.960938 63.066406 L 276.960938 66.25 L 284.378906 66.25 C 285.105469 66.25 285.59375 66.371094 285.847656 66.621094 C 286.097656 66.859375 286.230469 67.363281 286.230469 68.101562 L 286.230469 68.394531 C 286.230469 69.121094 286.097656 69.609375 285.847656 69.863281 C 285.59375 70.113281 285.105469 70.246094 284.378906 70.246094 Z M 284.378906 70.21875 " fill-opacity="1" fill-rule="nonzero"/><path fill="#ffffff" d="M 292.539062 70.746094 L 292.539062 66.292969 C 292.539062 63.527344 293.183594 61.4375 294.480469 60.011719 C 295.804688 58.542969 298.078125 57.816406 301.332031 57.816406 C 304.582031 57.816406 306.859375 58.542969 308.179688 60.011719 C 309.476562 61.4375 310.125 63.527344 310.125 66.292969 L 310.125 70.746094 C 310.125 73.511719 309.476562 75.601562 308.179688 77.027344 C 306.859375 78.496094 304.582031 79.222656 301.332031 79.222656 C 298.078125 79.222656 295.804688 78.496094 294.480469 77.027344 C 293.183594 75.601562 292.539062 73.511719 292.539062 70.746094 Z M 305.828125 70.746094 L 305.828125 66.292969 C 305.828125 64.652344 305.523438 63.515625 304.941406 62.851562 C 304.320312 62.152344 303.128906 61.796875 301.34375 61.796875 C 299.558594 61.796875 298.355469 62.152344 297.746094 62.851562 C 297.152344 63.515625 296.859375 64.664062 296.859375 66.292969 L 296.859375 70.746094 C 296.859375 72.386719 297.152344 73.523438 297.746094 74.183594 C 298.367188 74.886719 299.558594 75.242188 301.34375 75.242188 C 303.128906 75.242188 304.34375 74.886719 304.941406 74.183594 C 305.535156 73.523438 305.828125 72.386719 305.828125 70.746094 Z M 305.828125 70.746094 " fill-opacity="1" fill-rule="nonzero"/><path fill="#ffffff" d="M 316.046875 76.960938 L 316.046875 59.945312 C 316.046875 59.21875 316.167969 58.726562 316.417969 58.476562 C 316.65625 58.226562 317.160156 58.09375 317.898438 58.09375 L 318.46875 58.09375 C 319.207031 58.09375 319.710938 58.226562 319.949219 58.476562 C 320.1875 58.726562 320.320312 59.21875 320.320312 59.945312 L 320.320312 76.960938 C 320.320312 77.6875 320.199219 78.179688 319.949219 78.429688 C 319.710938 78.679688 319.207031 78.8125 318.46875 78.8125 L 317.898438 78.8125 C 317.160156 78.8125 316.65625 78.679688 316.417969 78.429688 C 316.179688 78.179688 316.046875 77.6875 316.046875 76.960938 Z M 316.046875 76.960938 " fill-opacity="1" fill-rule="nonzero"/><path fill="#ffffff" d="M 326.878906 74.992188 L 326.878906 61.925781 C 326.878906 60.59375 327.179688 59.613281 327.789062 59.019531 C 328.398438 58.410156 329.363281 58.105469 330.699219 58.105469 L 333.34375 58.105469 C 336.820312 58.105469 339.308594 58.6875 340.800781 59.863281 C 342.335938 61.027344 343.089844 63.15625 343.089844 66.238281 L 343.089844 70.695312 C 343.089844 73.523438 342.308594 75.574219 340.75 76.871094 C 339.1875 78.164062 336.714844 78.8125 333.34375 78.8125 L 330.699219 78.8125 C 329.363281 78.8125 328.382812 78.507812 327.789062 77.902344 C 327.179688 77.292969 326.878906 76.328125 326.878906 74.992188 Z M 332.101562 74.832031 L 333.34375 74.832031 C 335.417969 74.832031 336.820312 74.542969 337.546875 73.945312 C 338.316406 73.324219 338.699219 72.253906 338.699219 70.695312 L 338.699219 66.238281 C 338.699219 64.691406 338.316406 63.621094 337.546875 63.023438 C 336.808594 62.402344 335.40625 62.097656 333.34375 62.097656 L 332.101562 62.097656 C 331.464844 62.097656 331.148438 62.417969 331.148438 63.050781 L 331.148438 73.882812 C 331.148438 74.515625 331.464844 74.832031 332.101562 74.832031 Z M 332.101562 74.832031 " fill-opacity="1" fill-rule="nonzero"/><g clip-path="url(#9ab6eff895)"><path fill="#ffffff" d="M 360.449219 70.21875 L 353.03125 70.21875 L 353.03125 73.882812 C 353.03125 74.515625 353.351562 74.832031 353.984375 74.832031 L 361.71875 74.832031 C 362.445312 74.832031 362.9375 74.953125 363.1875 75.203125 C 363.4375 75.441406 363.570312 75.945312 363.570312 76.683594 L 363.570312 76.976562 C 363.570312 77.703125 363.4375 78.191406 363.1875 78.441406 C 362.9375 78.695312 362.445312 78.828125 361.71875 78.828125 L 352.582031 78.828125 C 351.246094 78.828125 350.269531 78.523438 349.671875 77.914062 C 349.066406 77.304688 348.761719 76.339844 348.761719 75.003906 L 348.761719 61.941406 C 348.761719 60.605469 349.066406 59.625 349.671875 59.03125 C 350.28125 58.421875 351.246094 58.121094 352.582031 58.121094 L 361.71875 58.121094 C 362.445312 58.121094 362.9375 58.25 363.1875 58.503906 C 363.4375 58.753906 363.570312 59.242188 363.570312 59.96875 L 363.570312 60.261719 C 363.570312 61.003906 363.4375 61.503906 363.1875 61.742188 C 362.9375 61.980469 362.445312 62.113281 361.71875 62.113281 L 353.984375 62.113281 C 353.351562 62.113281 353.03125 62.429688 353.03125 63.066406 L 353.03125 66.25 L 360.449219 66.25 C 361.175781 66.25 361.667969 66.371094 361.917969 66.621094 C 362.167969 66.859375 362.300781 67.363281 362.300781 68.101562 L 362.300781 68.394531 C 362.300781 69.121094 362.167969 69.609375 361.917969 69.863281 C 361.667969 70.113281 361.175781 70.246094 360.449219 70.246094 Z M 360.449219 70.21875 " fill-opacity="1" fill-rule="nonzero"/></g><path fill="#ffffff" d="M 150.21875 26.703125 L 150.574219 26.703125 C 150.753906 26.703125 150.925781 26.734375 151.09375 26.804688 C 151.257812 26.871094 151.402344 26.96875 151.53125 27.097656 C 151.65625 27.222656 151.753906 27.367188 151.820312 27.535156 C 151.890625 27.699219 151.925781 27.871094 151.925781 28.050781 L 151.925781 83.957031 C 151.925781 84.136719 151.890625 84.308594 151.820312 84.472656 C 151.753906 84.636719 151.65625 84.785156 151.53125 84.910156 C 151.402344 85.039062 151.257812 85.132812 151.09375 85.203125 C 150.925781 85.273438 150.753906 85.304688 150.574219 85.304688 L 150.21875 85.304688 C 150.039062 85.304688 149.867188 85.273438 149.703125 85.203125 C 149.539062 85.132812 149.390625 85.039062 149.265625 84.910156 C 149.136719 84.785156 149.042969 84.636719 148.972656 84.472656 C 148.902344 84.308594 148.871094 84.136719 148.871094 83.957031 L 148.871094 28.050781 C 148.871094 27.871094 148.902344 27.699219 148.972656 27.535156 C 149.042969 27.367188 149.136719 27.222656 149.265625 27.097656 C 149.390625 26.96875 149.539062 26.871094 149.703125 26.804688 C 149.867188 26.734375 150.039062 26.703125 150.21875 26.703125 Z M 150.21875 26.703125 " fill-opacity="1" fill-rule="nonzero"/></svg>